<svg width="113" height="116" viewBox="0 0 113 116" fill="none" xmlns="http://www.w3.org/2000/svg">
<path d="M56.2729 32.055C55.9648 32.1004 55.6789 32.2429 55.4587 32.4631L36.2695 51.4716H36.2684C35.9492 51.7292 35.7532 52.1111 35.731 52.5212C35.7098 52.9324 35.8623 53.3324 36.1533 53.6234C36.4442 53.9143 36.8443 54.0669 37.2554 54.0457C37.6656 54.0234 38.0475 53.8274 38.3051 53.5082L56.5436 35.4959L65.2338 43.4616V43.4606C65.5227 43.7193 65.9015 43.8516 66.2874 43.8304C66.6733 43.8092 67.036 43.6354 67.2936 43.3475C67.5522 43.0596 67.6846 42.6807 67.6634 42.2948C67.6421 41.9079 67.4684 41.5463 67.1805 41.2887L57.4954 32.4178C57.1651 32.1147 56.7145 31.9813 56.2731 32.0551L56.2729 32.055Z" fill="#5C5C5C"/>
<path d="M35.6352 31.7369C34.835 31.7743 34.2178 32.4532 34.2552 33.2533C34.2926 34.0524 34.9714 34.6706 35.7716 34.6332L89.1764 34.6787L76.5951 50.9717H37.9445L21.8767 32.2795C21.5818 31.934 21.1423 31.7461 20.6887 31.7724C20.2351 31.7996 19.8209 32.037 19.5683 32.4149L6.76077 51.6041V51.6052C6.45668 52.0517 6.42637 52.6316 6.68399 53.1074C6.94059 53.5832 7.44166 53.8772 7.98213 53.8681H36.9035C37.1833 53.955 37.4834 53.955 37.7632 53.8681H76.7758H76.7748C77.0415 53.9459 77.3244 53.9459 77.5901 53.8681H105.017C105.557 53.8772 106.058 53.5832 106.315 53.1074C106.572 52.6316 106.542 52.0517 106.238 51.6052L93.3394 32.4159V32.4149C93.0737 32.0249 92.6352 31.7885 92.1624 31.7815L35.7706 31.736C35.7251 31.734 35.6797 31.734 35.6342 31.736L35.6352 31.7369ZM20.9262 35.6294L34.0966 50.9717H10.6533L20.9275 35.6294H20.9262ZM92.0723 35.6749L102.301 50.9716H80.2596L92.0723 35.6749Z" fill="#5C5C5C"/>
<path d="M14.8629 60.1591C14.3547 60.249 13.9324 60.6036 13.7557 61.0885C13.5779 61.5734 13.6728 62.1159 14.0032 62.5129L55.3693 115.331V115.33C55.6441 115.674 56.0603 115.874 56.5007 115.874C56.9412 115.874 57.3574 115.674 57.6322 115.33L98.0026 63.7817C98.242 63.4817 98.3532 63.0988 98.3107 62.7169C98.2683 62.3351 98.0764 61.9855 97.7763 61.7451C97.4763 61.5047 97.0924 61.3935 96.7105 61.436C96.3287 61.4784 95.9791 61.6713 95.7397 61.9714L56.4995 112.118L16.2661 60.7507C15.9469 60.3052 15.4044 60.0779 14.8629 60.1628L14.8629 60.1591Z" fill="#5C5C5C"/>
<path d="M37.086 51.0169C36.6566 51.0744 36.2768 51.322 36.0495 51.6897C35.8212 52.0574 35.7697 52.508 35.9091 52.9171L55.1439 112.159C55.3449 112.731 55.8803 113.116 56.4865 113.126C57.0916 113.136 57.6391 112.768 57.8594 112.204L78.6327 52.9626C78.8953 52.1999 78.4902 51.3694 77.7275 51.1068C76.9658 50.8441 76.1344 51.2492 75.8717 52.012L56.5469 107.227L38.6699 52.012C38.4557 51.3371 37.7859 50.9169 37.0859 51.0159L37.086 51.0169Z" fill="#5C5C5C"/>
<path d="M56.3195 0.0115669C55.5729 0.104507 55.0224 0.753079 55.0517 1.50468V19.1554C55.0466 19.5433 55.1971 19.9171 55.4689 20.1929C55.7407 20.4687 56.1124 20.6243 56.5004 20.6243C56.8883 20.6243 57.2601 20.4687 57.5318 20.1929C57.8036 19.9171 57.9541 19.5433 57.949 19.1554V1.50468C57.9652 1.07938 57.7935 0.668201 57.4803 0.38028C57.1661 0.0923597 56.7418 -0.0419929 56.3195 0.0115412L56.3195 0.0115669Z" fill="#E10000"/>
<path d="M111.31 15.1723C111.039 15.2218 110.787 15.3471 110.585 15.534L99.5425 25.1293C99.2485 25.3808 99.0657 25.7395 99.0364 26.1264C99.0071 26.5123 99.1314 26.8942 99.3839 27.1891C99.6355 27.4831 99.9941 27.6649 100.381 27.6942C100.767 27.7246 101.149 27.5993 101.443 27.3467L112.486 17.7072H112.487C112.985 17.2859 113.14 16.5828 112.865 15.9908C112.591 15.3989 111.953 15.0635 111.31 15.1725L111.31 15.1723Z" fill="#E10000"/>
<path d="M1.19487 15.1723C0.641272 15.2703 0.194744 15.6804 0.049271 16.224C-0.0962021 16.7665 0.086646 17.3453 0.515997 17.707L11.5588 27.3465H11.5598C11.8538 27.599 12.2356 27.7243 12.6215 27.694C13.0085 27.6647 13.3671 27.4829 13.6186 27.1889C13.8712 26.8939 13.9955 26.5121 13.9662 26.1261C13.9369 25.7392 13.754 25.3806 13.4601 25.129L2.41729 15.5338C2.08796 15.2307 1.63639 15.0973 1.1949 15.1721L1.19487 15.1723Z" fill="#E10000"/>
</svg>
