<svg width="19" height="11" viewBox="0 0 19 11" fill="none" xmlns="http://www.w3.org/2000/svg">
<path d="M19 5.50016C19 5.36628 18.9114 5.18839 18.8215 5.10196L13.7549 0.180655C13.5183 -0.0428752 13.1351 -0.0687216 12.8594 0.158039C12.6129 0.360975 12.6067 0.756538 12.8346 0.976852L16.9017 4.92106H0.633287C0.283393 4.92106 0 5.18033 0 5.49997C0 5.81982 0.283625 6.07888 0.633287 6.07888H16.9017L12.8346 10.0231C12.6067 10.2434 12.6228 10.6293 12.8594 10.8417C13.109 11.066 13.5221 11.046 13.7549 10.8191L18.8215 5.89798C18.9704 5.76451 18.9976 5.63588 19 5.49999V5.50016Z" fill="#959595"/>
</svg>
