<svg width="19" height="11" viewBox="0 0 19 11" fill="none" xmlns="http://www.w3.org/2000/svg">
<path d="M0 5.50016C0 5.36628 0.0885773 5.18839 0.178478 5.10196L5.24511 0.180655C5.48169 -0.0428752 5.86494 -0.0687216 6.14061 0.158039C6.38713 0.360975 6.39332 0.756538 6.16535 0.976852L2.09827 4.92106H18.3667C18.7166 4.92106 19 5.18033 19 5.49997C19 5.81982 18.7164 6.07888 18.3667 6.07888H2.09827L6.16535 10.0231C6.39331 10.2434 6.37719 10.6293 6.14061 10.8417C5.891 11.066 5.47792 11.046 5.24511 10.8191L0.178478 5.89798C0.0295963 5.76451 0.00242615 5.63588 0 5.49999V5.50016Z" fill="#959595"/>
</svg>
