<svg width="18" height="20" viewBox="0 0 18 20" fill="none" xmlns="http://www.w3.org/2000/svg">
<path d="M17.6809 19.308C17.6809 19.308 17.6809 19.3079 17.6809 19.3079C17.7783 18.9336 17.7582 18.5393 17.6234 18.1793C17.4886 17.8195 17.2457 17.5122 16.9287 17.3002C15.7978 16.4679 14.8207 15.7488 13.7825 15.0065C13.4622 14.7654 13.0763 14.629 12.6757 14.6154C12.2415 14.6144 11.8173 14.7546 11.4654 15.0155C11.2679 15.1544 11.0843 15.3126 10.9168 15.4877C10.7698 15.6578 10.4933 15.991 10.2543 16.2808C10.0928 16.4765 9.82559 16.561 9.59829 16.4483C9.10868 16.206 6.92122 15.0164 5.62779 12.5523C5.28336 11.8961 5.54083 11.1119 6.11514 10.6435C6.36641 10.4297 6.58947 10.1841 6.77872 9.91284C6.99942 9.61429 7.13034 9.25815 7.15559 8.88771C7.18084 8.51725 7.09917 8.14853 6.92076 7.82589C6.75594 7.51924 5.13378 5.02534 4.69212 4.36547C4.6921 4.36544 4.69206 4.36545 4.69205 4.36548C4.69204 4.36551 4.692 4.36552 4.69198 4.36549C4.45972 4.01148 4.11943 3.74438 3.72249 3.60398C3.32528 3.46366 2.89282 3.45777 2.48964 3.58713C2.01026 3.72714 1.61234 4.06971 1.3985 4.52646C0.239269 6.97497 -0.0911285 9.73438 0.458385 12.3761C0.875897 14.3887 1.79303 16.2561 3.12359 17.8034C4.45416 19.3505 6.15465 20.527 8.06575 21.222C10.7302 22.18 13.6507 22.1639 16.3228 21.1765C16.7458 21.0161 17.094 20.6991 17.2962 20.29C17.4435 19.9705 17.572 19.6425 17.681 19.308C17.681 19.308 17.6809 19.3079 17.6809 19.308ZM16.5516 19.9218C16.5516 19.9218 16.5516 19.9218 16.5516 19.9218C16.4455 20.1369 16.2626 20.3036 16.0402 20.3879C14.0831 21.1167 11.9694 21.2835 9.93472 20.8699C7.80525 20.441 5.85175 19.3922 4.31319 17.8517C2.77453 16.311 1.71784 14.3457 1.27253 12.1963C0.760507 9.73606 1.06807 7.16588 2.14734 4.88555C2.25778 4.64988 2.46176 4.47214 2.7082 4.39668C2.95476 4.3209 3.21804 4.32455 3.46095 4.40729C3.68287 4.48874 3.8721 4.64056 4.00086 4.84036C4.52221 5.61891 6.05713 7.98779 6.18989 8.23457L6.1898 8.23437C6.29445 8.41708 6.34255 8.62773 6.3279 8.83935C6.31324 9.05096 6.23666 9.254 6.10775 9.42232C5.96124 9.63362 5.78878 9.82535 5.59455 9.99273C5.14361 10.3606 4.76565 10.6513 4.40531 10.9076C4.25606 11.0138 4.19144 11.2037 4.24508 11.3788C5.39943 15.1481 8.59774 16.8932 9.22718 17.2047C9.22722 17.2047 9.22721 17.2047 9.22717 17.2048C9.22713 17.2048 9.22713 17.2048 9.22717 17.2049C9.49161 17.3382 9.77272 17.4352 10.0632 17.4934C10.2102 17.5186 10.3595 17.4629 10.454 17.3473L10.456 17.3449C10.464 17.3353 11.2615 16.3613 11.5441 16.0338C11.5441 16.0338 11.5442 16.0338 11.5442 16.0338C11.5442 16.0339 11.5443 16.0339 11.5443 16.0338C11.6668 15.9122 11.799 15.8014 11.9396 15.702C12.1438 15.546 12.3914 15.4599 12.6462 15.4563C12.8803 15.4666 13.1053 15.5481 13.2915 15.6903L13.2961 15.6938C14.3304 16.4333 15.3059 17.151 16.4376 17.9839C16.4376 17.9839 16.4377 17.9839 16.4377 17.9839C16.4377 17.9838 16.4377 17.9838 16.4378 17.9838C16.619 18.0965 16.7596 18.2651 16.8388 18.4652C16.918 18.6651 16.9318 18.8862 16.8782 19.096C16.8545 19.1757 16.6648 19.6912 16.5517 19.9218C16.5517 19.9218 16.5517 19.9218 16.5516 19.9218Z" fill="#B61111"/>
<path d="M6.15126 -0.927548C6.15126 -0.927592 6.15129 -0.927629 6.15134 -0.927622C7.86699 -0.634997 9.42279 0.253542 10.5518 1.58541C11.6807 2.9174 12.3124 4.60968 12.3383 6.37181C12.3487 6.95747 12.29 7.54289 12.164 8.11587C12.1186 8.32205 12.231 8.52882 12.4265 8.59961C12.4439 8.60588 12.4616 8.61093 12.4795 8.61491C12.7037 8.66302 12.9259 8.5181 12.9758 8.29095C13.1163 7.65324 13.1814 7.00172 13.1699 6.34996C13.1406 4.3926 12.4385 2.51288 11.1842 1.03371C9.92994 -0.445563 8.20156 -1.43224 6.29581 -1.75706C6.1871 -1.77561 6.07519 -1.74962 5.98474 -1.68489C5.89423 -1.62002 5.83262 -1.52164 5.81345 -1.4116C5.79422 -1.30141 5.81905 -1.18854 5.88239 -1.09776C5.94585 -1.00694 6.04255 -0.945701 6.15119 -0.927474C6.15123 -0.927467 6.15127 -0.927505 6.15126 -0.927548Z" fill="#B61111"/>
<path d="M5.81757 1.73734C5.81757 1.73732 5.81756 1.73731 5.81754 1.73731C5.70941 1.71583 5.59696 1.73882 5.50474 1.80126C5.41252 1.8637 5.34829 1.96031 5.32632 2.07C5.3042 2.17964 5.32601 2.29324 5.38707 2.38584C5.44798 2.47839 5.54314 2.5422 5.65139 2.56339C6.55051 2.73694 7.36024 3.21907 7.94432 3.9287C8.52827 4.63825 8.85097 5.53195 8.85807 6.45943C8.86162 6.66607 8.8487 6.87288 8.81926 7.07772C8.80341 7.18846 8.83174 7.30062 8.89804 7.3895C8.9642 7.47833 9.06287 7.53648 9.17232 7.55117C9.28176 7.56587 9.39268 7.5359 9.48109 7.46779C9.56931 7.39978 9.6275 7.29918 9.64272 7.18837C9.67847 6.93898 9.69417 6.68747 9.68958 6.43591C9.68013 5.31693 9.29001 4.2391 8.58484 3.38343C7.87968 2.52775 6.90266 1.94657 5.8176 1.73736C5.81758 1.73736 5.81757 1.73735 5.81757 1.73734Z" fill="#B61111"/>
</svg>
