<svg width="29" height="28" viewBox="0 0 29 28" fill="none" xmlns="http://www.w3.org/2000/svg">
<path d="M15.688 12.706V14.7276C17.7452 15.208 19.1921 17.7784 19.1921 20.7941C19.1921 21.8277 19.0214 22.8238 18.7031 23.7059H23.3971C23.784 23.7059 24.0978 23.9956 24.0978 24.353C24.0978 24.7103 23.784 25 23.3971 25H6.57771C6.19079 25 5.87698 24.7103 5.87698 24.353C5.87698 23.9956 6.19078 23.7059 6.57771 23.7059H11.2716C10.9534 22.8238 10.7827 21.8277 10.7827 20.7941C10.7827 17.7783 12.2297 15.2077 14.2867 14.7276V12.706H7.27861C6.84913 12.706 6.52057 12.3526 6.58588 11.9604L7.98747 3.54862C8.04015 3.23296 8.33433 3 8.6802 3H21.2945C21.6404 3 21.9346 3.23295 21.9872 3.54862L23.3888 11.9604C23.4541 12.3525 23.1256 12.706 22.6961 12.706H20.9441V14.1732C21.3631 14.397 21.6448 14.8153 21.6448 15.2942C21.6448 16.0089 21.0174 16.5883 20.2434 16.5883C19.4692 16.5883 18.8418 16.0089 18.8418 15.2942C18.8418 14.8153 19.1235 14.3969 19.5425 14.1732V12.706H15.688ZM17.2085 23.7059C17.5821 22.872 17.7905 21.8612 17.7905 20.7942C17.7905 18.0671 16.4361 15.9413 14.9873 15.9413C13.5385 15.9413 12.1841 18.0671 12.1841 20.7942C12.1841 21.8612 12.3925 22.8721 12.7662 23.7059H17.2085ZM8.09545 11.4119H21.879L20.6931 4.29415H9.28123L8.09545 11.4119Z" fill="#CAB7B7"/>
</svg>
