<svg width="28" height="28" viewBox="0 0 28 28" fill="none" xmlns="http://www.w3.org/2000/svg">
<path d="M24.5701 4H3.40478C2.62939 4 2 4.65901 2 5.4709V18.8267C2 19.6386 2.62939 20.2976 3.40478 20.2976H4.77954L3.59958 22.5647C3.52458 22.7058 3.57342 22.8862 3.71188 22.9607C3.75304 22.9881 3.79803 23 3.84303 23C3.94419 23 4.0415 22.945 4.09033 22.847L5.42394 20.2974H22.551L23.8846 22.847C23.9333 22.945 24.0308 23 24.1281 23C24.1767 23 24.2217 22.9883 24.2629 22.9607C24.4015 22.8862 24.4502 22.7058 24.3752 22.5647L23.1952 20.2976H24.57C25.3454 20.2976 25.9748 19.6386 25.9748 18.8267V5.4709C25.9748 4.65901 25.3454 4 24.57 4H24.5701ZM24.1955 18.4345H3.77939V5.86314H24.1955V18.4345Z" fill="#CAB7B7"/>
</svg>
