<svg width="17" height="16" viewBox="0 0 17 16" fill="none" xmlns="http://www.w3.org/2000/svg">
<path d="M5.96877 0C2.67822 0 0 2.67342 0 5.95978C0 9.24622 2.67829 11.9196 5.96877 11.9196C9.25925 11.9196 11.9375 9.24614 11.9375 5.95978C11.9375 2.67349 9.25925 0 5.96877 0ZM5.96877 10.217C3.61795 10.217 1.70515 8.30728 1.70515 5.95978C1.70515 3.6125 3.61773 1.70259 5.96877 1.70259C8.31959 1.70259 10.2324 3.61228 10.2324 5.95978C10.2324 8.3072 8.31966 10.217 5.96877 10.217Z" fill="#7C7C7C"/>
<path d="M11.6881 10.0406L10.4824 11.2445L14.9956 15.7509C15.3291 16.083 15.8689 16.083 16.2013 15.7509C16.5348 15.418 16.5348 14.879 16.2013 14.5471L11.6881 10.0406Z" fill="#7C7C7C"/>
</svg>
