<svg width="29" height="28" viewBox="0 0 29 28" fill="none" xmlns="http://www.w3.org/2000/svg">
<path d="M5.87703 1.59397V25.4061C5.87703 25.7334 6.13283 26 6.44656 26H8.40332V25.9973C8.64598 25.9973 8.87271 25.8321 8.94676 25.5765L9.69047 23.0158L20.3528 22.9994L21.1308 25.5408C21.1915 25.8021 21.4156 26 21.6873 26H23.5283C23.8422 26 24.0978 25.7332 24.0978 25.406V1.59393C24.0978 1.26656 23.842 1 23.5283 1H6.44651C6.13259 1 5.87698 1.26655 5.87698 1.59393L5.87703 1.59397ZM7.01884 2.19078H22.956V24.8093H22.1017L21.3106 22.2239C21.229 21.9626 20.9915 21.8004 20.7411 21.8141L9.26898 21.8305C9.00781 21.8305 8.78645 22.0174 8.72055 22.2706L7.98204 24.8093H7.01935L7.01915 2.19083L7.01884 2.19078Z" fill="#CAB7B7"/>
<path d="M14.1315 21.402C14.448 21.402 14.7036 21.1352 14.7036 20.8053V3.4725C14.7036 3.14512 14.4479 2.87856 14.1315 2.87856H8.02907C7.71515 2.87856 7.45954 3.14532 7.45954 3.4725V20.8048C7.45954 21.1349 7.71534 21.4014 8.02907 21.4014L14.1315 21.4016V21.402ZM8.60135 4.06967H13.562V20.211L8.60135 20.2108V4.06967Z" fill="#CAB7B7"/>
<path d="M15.8428 21.402H21.9457C22.2622 21.402 22.5178 21.1352 22.5178 20.8053V3.4725C22.5178 3.14512 22.262 2.87856 21.9457 2.87856H15.8428C15.5288 2.87856 15.2732 3.14532 15.2732 3.4725V20.8048C15.2732 21.1351 15.5288 21.402 15.8428 21.402V21.402ZM16.4125 4.06967H21.3757V20.211L16.4125 20.2108V4.06967Z" fill="#CAB7B7"/>
<path d="M11.3858 11.5008C10.6341 11.5008 10.6341 12.6888 11.3858 12.6888C12.1902 12.6888 13.1791 12.8814 13.1791 12.0948C13.1791 11.3081 12.19 11.5007 11.3858 11.5007V11.5008Z" fill="#CAB7B7"/>
<path d="M17.367 11.5443C16.6153 11.5443 16.6153 12.7353 17.367 12.7353C18.1714 12.7353 19.1603 12.9252 19.1603 12.1386C19.1605 11.3516 18.1716 11.5443 17.367 11.5443Z" fill="#CAB7B7"/>
</svg>
