<svg width="28" height="28" viewBox="0 0 28 28" fill="none" xmlns="http://www.w3.org/2000/svg">
<path d="M3.48001 13.5002C3.48001 7.45866 8.19362 2.54348 13.9874 2.54348C19.7811 2.54348 24.4947 7.45866 24.4947 13.5002C24.4947 19.5417 19.7811 24.4569 13.9874 24.4569V26C20.5971 26 25.9748 20.3924 25.9748 13.5C25.9748 6.60759 20.5971 1 13.9874 1C7.37763 1 2 6.60759 2 13.5L3.48001 13.5002Z" fill="#CAB7B7"/>
<path d="M20.3942 9.9975L13.5233 17.1618L9.70279 13.1778L11.094 11.7272L13.6221 14.3634L19.3302 8.41121C17.7186 6.76411 15.9215 5.93822 13.9381 5.93822C9.90585 5.93822 6.63689 9.34679 6.63689 13.5516C6.63689 17.7564 9.90568 21.165 13.9381 21.165C17.9704 21.165 21.2392 17.7564 21.2392 13.5516C21.2392 12.2676 20.933 11.0586 20.3946 9.99746L20.3942 9.9975Z" fill="#CAB7B7"/>
</svg>
