<svg width="28" height="28" viewBox="0 0 28 28" fill="none" xmlns="http://www.w3.org/2000/svg">
<path d="M17.749 9.565C17.4364 9.23885 16.9314 9.23885 16.6189 9.565L10.2255 16.2369C9.91299 16.563 9.91299 17.09 10.2255 17.4162C10.3814 17.5787 10.586 17.6604 10.7907 17.6604C10.9953 17.6604 11.1999 17.5787 11.3556 17.416L17.749 10.7441C18.0615 10.4182 18.0615 9.89097 17.749 9.565Z" fill="#CAB7B7"/>
<path d="M13.1882 10.1545C13.1882 8.7751 12.1125 7.65256 10.7907 7.65256C9.46887 7.65256 8.39318 8.7751 8.39318 10.1545C8.39318 11.5339 9.46887 12.6565 10.7907 12.6565C12.1125 12.6565 13.1882 11.5339 13.1882 10.1545ZM9.99152 10.1545C9.99152 9.69507 10.3495 9.32052 10.7907 9.32052C11.2318 9.32052 11.5899 9.69507 11.5899 10.1545C11.5899 10.6139 11.2318 10.9885 10.7907 10.9885C10.3495 10.9885 9.99152 10.6139 9.99152 10.1545Z" fill="#CAB7B7"/>
<path d="M17.1841 14.3244C15.8622 14.3244 14.7866 15.447 14.7866 16.8264C14.7866 18.2058 15.8622 19.3283 17.1841 19.3283C18.5059 19.3283 19.5816 18.2058 19.5816 16.8264C19.5816 15.447 18.5059 14.3244 17.1841 14.3244ZM17.1841 17.6604C16.7429 17.6604 16.3849 17.2858 16.3849 16.8264C16.3849 16.3669 16.7429 15.9924 17.1841 15.9924C17.6252 15.9924 17.9833 16.3669 17.9833 16.8264C17.9833 17.2858 17.6252 17.6604 17.1841 17.6604Z" fill="#CAB7B7"/>
<path d="M25.3758 11.974L24.6758 11.2435C24.3881 10.9433 24.2147 10.2694 24.3201 9.85837L24.5759 8.86002C24.7181 8.30883 24.6446 7.73081 24.369 7.23452C24.0941 6.73746 23.6521 6.38304 23.1232 6.23541L22.1672 5.96771C21.774 5.85769 21.3009 5.36381 21.1946 4.95445L20.9388 3.9561C20.6527 2.84194 19.5012 2.13978 18.423 2.44006L17.4672 2.70775C17.1004 2.80958 16.4154 2.62361 16.1405 2.33655L15.4396 1.60608C14.6653 0.797974 13.309 0.797974 12.5346 1.60608L11.8337 2.33751C11.5588 2.62437 10.874 2.81035 10.5064 2.70871L9.55128 2.44101C8.47331 2.13981 7.32163 2.84199 7.03549 3.95705L6.77986 4.95373C6.67443 5.36569 6.20116 5.85863 5.80802 5.96866L4.85152 6.23636C4.32242 6.38398 3.87968 6.73918 3.60477 7.23638C3.32987 7.73343 3.25709 8.3105 3.39944 8.86021L3.65436 9.85932C3.75978 10.2705 3.58728 10.9435 3.29955 11.2445L2.59956 11.975C2.21336 12.3786 2 12.9173 2 13.4903C2 14.0633 2.21335 14.602 2.60011 15.0056L3.30009 15.7361C3.58783 16.0364 3.76124 16.7102 3.6558 17.1213L3.39999 18.1196C3.25782 18.6708 3.33131 19.2488 3.60692 19.7451C3.88181 20.2414 4.32384 20.5966 4.85276 20.7442L5.80784 21.0112C6.20189 21.1212 6.67496 21.6151 6.78128 22.0245L7.03619 23.0228C7.32232 24.137 8.4779 24.8367 9.55125 24.5381L10.5079 24.2712C10.8756 24.1693 11.5604 24.3553 11.8353 24.6424L12.5353 25.3721C12.9222 25.7773 13.4384 26 13.9882 26C14.538 26 15.0543 25.7774 15.4403 25.3745L16.1412 24.644C16.417 24.3572 17.1041 24.1729 17.4685 24.2728L18.4236 24.5398C18.597 24.5882 18.7745 24.6124 18.9527 24.6124H18.9534C19.8821 24.6124 20.6996 23.9594 20.9394 23.0237L21.1943 22.0279C21.3006 21.616 21.7737 21.1231 22.1669 21.0121L23.1227 20.7452C23.6518 20.5975 24.0945 20.2414 24.3694 19.7444C24.6443 19.2473 24.7171 18.6703 24.5748 18.1205L24.3199 17.1214C24.2144 16.7102 24.3869 16.0373 24.6747 15.7363L25.3747 15.0058C25.7614 14.6022 25.9748 14.0635 25.9748 13.4905C25.9758 12.9156 25.7625 12.3778 25.3757 11.974L25.3758 11.974ZM24.2457 13.8256L23.5458 14.556C22.8545 15.2783 22.5236 16.5667 22.7769 17.5517L23.0318 18.5517C23.063 18.6727 23.047 18.7994 22.9854 18.9102C22.9239 19.0212 22.8263 19.1003 22.7097 19.1328L21.753 19.3998C20.8091 19.6641 19.9053 20.6074 19.6513 21.594L19.3963 22.5915C19.3348 22.8342 19.0806 22.9951 18.8376 22.9275L17.8826 22.6605C16.9571 22.4029 15.6809 22.764 15.0111 23.4629L14.3102 24.1934C14.14 24.3709 13.8362 24.3709 13.6644 24.1934L12.9651 23.4644C12.4473 22.9223 11.585 22.5729 10.7682 22.5729C10.53 22.5729 10.3031 22.6028 10.0944 22.6603L9.1377 22.9273C8.89634 22.9949 8.64144 22.8331 8.57901 22.592L8.3241 21.592C8.0699 20.6071 7.16603 19.6638 6.22145 19.3994L5.26564 19.1325C5.14898 19.0999 5.0514 19.0208 4.98986 18.9098C4.9292 18.7989 4.91155 18.6714 4.94276 18.5504L5.19857 17.5513C5.45116 16.5646 5.12026 15.277 4.42899 14.5564L3.72901 13.8249C3.64552 13.738 3.59843 13.6187 3.59843 13.4902C3.59843 13.3618 3.64552 13.2434 3.73025 13.1542L4.43024 12.4237C5.1215 11.7024 5.4524 10.4138 5.19909 9.42883L4.94417 8.42805C4.91313 8.3078 4.92901 8.18028 4.98984 8.06933C5.05139 7.95931 5.14879 7.88001 5.26545 7.84743L6.22126 7.57974C7.16584 7.31539 8.06972 6.37289 8.32391 5.38551L8.57882 4.38806C8.64108 4.14624 8.89688 3.98615 9.13751 4.05205L10.0926 4.31974C11.0172 4.57906 12.2942 4.21549 12.9641 3.5174L13.665 2.78597C13.8352 2.60838 14.1397 2.60838 14.3098 2.78597L15.0091 3.51569C15.678 4.21452 16.9542 4.57732 17.8806 4.31879L18.8364 4.05109C19.0794 3.98612 19.3336 4.14529 19.3951 4.38636L19.6509 5.38638C19.9051 6.3721 20.809 7.3146 21.7536 7.57799L22.7094 7.84569C22.826 7.87827 22.9236 7.95739 22.9851 8.06833C23.0458 8.17928 23.0635 8.3068 23.0322 8.42855L22.7764 9.42766C22.5238 10.4143 22.8547 11.702 23.546 12.4226L24.246 13.154C24.3307 13.2424 24.3778 13.3617 24.3778 13.4893C24.3776 13.6177 24.3305 13.737 24.2458 13.8255L24.2457 13.8256Z" fill="#CAB7B7"/>
</svg>
