<svg width="29" height="28" viewBox="0 0 29 28" fill="none" xmlns="http://www.w3.org/2000/svg">
<path d="M23.3735 5.42967V2.1877C23.3735 1.54569 22.8748 1 22.2204 1H6.70144C6.07815 1 5.54836 1.51366 5.54836 2.1877V5.42967H5.36133C4.58228 5.42967 3.95898 6.07168 3.95898 6.87413V25.5555C3.95898 26.358 4.58228 27 5.36133 27H23.6544C24.4335 27 25.0568 26.358 25.0568 25.5555V6.87413C25.0568 6.07147 24.4335 5.42967 23.6855 5.42967H23.3735ZM6.38971 2.1877C6.38971 2.02729 6.51433 1.89873 6.67025 1.89873H22.1897C22.3454 1.89873 22.4703 2.02709 22.4703 2.1877V5.42967H6.38987L6.38971 2.1877ZM4.83145 6.87413C4.83145 6.55311 5.0807 6.32843 5.36124 6.32843H23.6538C23.9655 6.32843 24.1836 6.58516 24.1836 6.87413V7.35554H4.83125L4.83145 6.87413ZM24.2149 25.5555C24.2149 25.8766 23.9656 26.1012 23.6851 26.1012H5.36094C5.04928 26.1012 4.83115 25.8445 4.83115 25.5555V8.22211H24.2146L24.2149 25.5555Z" fill="#CAB7B7"/>
<path d="M7.97886 18.6222H20.2264C20.6937 18.6222 21.0678 18.2371 21.0678 17.7554V11.4324C21.0678 10.9509 20.6939 10.5656 20.2264 10.5656H7.97886C7.51148 10.5656 7.13741 10.9507 7.13741 11.4324V17.756C7.1063 18.2374 7.51147 18.6225 7.97886 18.6225V18.6222ZM7.97886 11.4319H20.2264V17.7555H7.97886V11.4319Z" fill="#CAB7B7"/>
<path d="M6.54547 25.684H22.6569C23.1243 25.684 23.4984 25.2989 23.4984 24.8173V21.5753C23.4984 21.0939 23.1245 20.7086 22.6569 20.7086H6.54547C6.07808 20.7086 5.70401 21.0937 5.70401 21.5753V24.8173C5.70401 25.2989 6.07807 25.684 6.54547 25.684ZM6.54547 21.5753H22.6569V24.8173H6.54547V21.5753Z" fill="#CAB7B7"/>
<path d="M16.9228 2.92582H11.9678C11.7808 2.92582 11.6873 3.08622 11.6873 3.27887V4.33822C11.6873 4.53087 11.7808 4.69128 11.9678 4.69128H16.9228C17.1099 4.69128 17.2034 4.53087 17.2034 4.33822V3.27887C17.2345 3.08642 17.141 2.92582 16.9228 2.92582ZM16.6736 4.11352H12.2484V3.53579H16.6736V4.11352Z" fill="#CAB7B7"/>
<path d="M9.75534 3.08641C9.75534 3.40541 9.50414 3.66414 9.19445 3.66414C8.88455 3.66414 8.63336 3.4054 8.63336 3.08641C8.63336 2.76721 8.88456 2.50847 9.19445 2.50847C9.50415 2.50847 9.75534 2.76722 9.75534 3.08641Z" fill="#CAB7B7"/>
<path d="M9.75534 4.43455C9.75534 4.75355 9.50414 5.01228 9.19445 5.01228C8.88455 5.01228 8.63336 4.75353 8.63336 4.43455C8.63336 4.11535 8.88456 3.85682 9.19445 3.85682C9.50415 3.85682 9.75534 4.11536 9.75534 4.43455Z" fill="#CAB7B7"/>
<path d="M20.4442 4.43455C20.4442 4.75355 20.193 5.01228 19.8833 5.01228C19.5734 5.01228 19.3224 4.75353 19.3224 4.43455C19.3224 4.11535 19.5734 3.85682 19.8833 3.85682C20.193 3.85682 20.4442 4.11536 20.4442 4.43455Z" fill="#CAB7B7"/>
<path d="M20.4442 3.08641C20.4442 3.40541 20.193 3.66414 19.8833 3.66414C19.5734 3.66414 19.3224 3.4054 19.3224 3.08641C19.3224 2.76721 19.5734 2.50847 19.8833 2.50847C20.193 2.50847 20.4442 2.76722 20.4442 3.08641Z" fill="#CAB7B7"/>
</svg>
