<svg width="29" height="28" viewBox="0 0 29 28" fill="none" xmlns="http://www.w3.org/2000/svg">
<path d="M20.9012 1H8.11457C6.35637 1 4.91797 2.49991 4.91797 4.3333V25.4445C4.91797 25.7501 5.15767 26 5.4507 26H23.5651C23.8581 26 24.0978 25.75 24.0978 25.4445V4.3333C24.0978 2.49991 22.6592 1 20.901 1H20.9012ZM5.98347 8.22225V4.88876H19.0365V8.22205L5.98347 8.22225ZM20.102 4.88876H23.0324V8.22205L20.102 8.22225V4.88876ZM8.11457 2.11097H20.9012C21.8868 2.11097 22.7393 2.83314 22.9524 3.77774H6.06344C6.27657 2.83334 7.12889 2.11097 8.11467 2.11097H8.11457ZM5.98342 24.8888V9.33322H23.0322V24.8888H5.98342ZM17.9709 6.55543C17.9709 6.861 17.7312 7.11094 17.4381 7.11094H16.9054C16.6124 7.11094 16.3727 6.86098 16.3727 6.55543C16.3727 6.24988 16.6124 5.99992 16.9054 5.99992H17.4381C17.7312 5.99992 17.9709 6.24988 17.9709 6.55543ZM15.307 6.55543C15.307 6.861 15.0673 7.11094 14.7743 7.11094H14.2415C13.9485 7.11094 13.7088 6.86098 13.7088 6.55543C13.7088 6.24988 13.9485 5.99992 14.2415 5.99992H14.7743C15.0673 5.99992 15.307 6.24988 15.307 6.55543ZM12.6431 6.55543C12.6431 6.861 12.4034 7.11094 12.1104 7.11094H11.5777C11.2846 7.11094 11.0449 6.86098 11.0449 6.55543C11.0449 6.24988 11.2846 5.99992 11.5777 5.99992H12.1104C12.4034 5.99992 12.6431 6.24988 12.6431 6.55543ZM9.97924 6.55543C9.97924 6.861 9.73953 7.11094 9.44651 7.11094H7.84809C7.55505 7.11094 7.31536 6.86098 7.31536 6.55543C7.31536 6.24988 7.55507 5.99992 7.84809 5.99992H9.44651C9.73955 5.99992 9.97924 6.24988 9.97924 6.55543ZM14.5078 11C11.2844 11 8.64725 13.7501 8.64725 17.1111C8.64725 20.4724 11.2845 23.2223 14.5078 23.2223C17.7312 23.2223 20.3683 20.4722 20.3683 17.1111C20.3683 13.7499 17.7312 11 14.5078 11V11ZM14.5078 22.1111C11.8705 22.1111 9.7128 19.8612 9.7128 17.1111C9.7128 14.3611 11.8705 12.1111 14.5078 12.1111C17.1451 12.1111 19.3028 14.3611 19.3028 17.1111C19.3028 19.861 17.1451 22.1111 14.5078 22.1111ZM14.5078 13.2222C12.4565 13.2222 10.7784 14.9723 10.7784 17.111C10.7784 19.25 12.4567 20.9998 14.5078 20.9998C16.559 20.9998 18.2371 19.2498 18.2371 17.111C18.2371 14.9723 16.559 13.2222 14.5078 13.2222V13.2222ZM14.5078 14.3334C15.893 14.3334 17.0384 15.4445 17.1717 16.8613C16.7987 17.1112 16.266 17.0558 15.973 16.7223C15.1737 15.889 13.8951 15.889 13.096 16.7223C12.7764 17.0556 12.2702 17.0835 11.8973 16.8613C11.9772 15.4445 13.1226 14.3334 14.5078 14.3334H14.5078ZM14.5078 19.889C13.3624 19.889 12.4034 19.139 12.0305 18.0836C12.6698 18.1946 13.3358 18.0002 13.8418 17.5001C14.2147 17.1112 14.8274 17.1112 15.2271 17.5001C15.6266 17.9167 16.1595 18.1112 16.6655 18.1112C16.7987 18.1112 16.9052 18.1112 17.0118 18.0835C16.6121 19.1389 15.6532 19.889 14.5077 19.889L14.5078 19.889Z" fill="#CAB7B7"/>
</svg>
