<svg width="29" height="28" viewBox="0 0 29 28" fill="none" xmlns="http://www.w3.org/2000/svg">
<path d="M20.989 15.152H20.7564L20.7566 4.69907C20.7559 3.71831 20.4427 2.77798 19.886 2.08449C19.3293 1.39071 18.5744 1.00088 17.7869 1H12.2388H12.2389C11.4505 0.999083 10.6942 1.38844 10.1364 2.08197C9.57856 2.77575 9.26468 3.7172 9.26397 4.69907V15.152H9.0314H9.03158C8.72529 15.152 8.43171 15.3035 8.21516 15.5733C7.99862 15.8428 7.87698 16.2087 7.87698 16.59V18.3212C7.87698 18.7028 7.99861 19.0685 8.21516 19.3383C8.4317 19.608 8.72525 19.7595 9.03158 19.7595H14.4821V23.7089H11.1135C10.8217 23.7089 10.5851 24.0036 10.5851 24.367V26.3418C10.5851 26.7055 10.8217 27 11.1135 27C11.4054 27 11.642 26.7055 11.642 26.3418V25.0255H14.4821V26.3418C14.4821 26.7055 14.7185 27 15.0105 27C15.3024 27 15.5388 26.7055 15.5388 26.3418V25.0255H18.3789V26.3418C18.3789 26.7055 18.6155 27 18.9074 27C19.1992 27 19.4358 26.7055 19.4358 26.3418V24.367C19.4358 24.1925 19.3801 24.0252 19.281 23.9017C19.1818 23.7782 19.0475 23.7088 18.9074 23.7088H15.5388V19.7595H20.9893C21.2956 19.7595 21.5892 19.608 21.8057 19.3383C22.0223 19.0685 22.1439 18.7028 22.1439 18.3212V16.59C22.1439 16.2087 22.0223 15.8428 21.8057 15.5732C21.5892 15.3035 21.2956 15.152 20.9893 15.152L20.989 15.152ZM10.321 4.69907C10.3216 4.06753 10.5234 3.4619 10.882 3.01518C11.2404 2.56866 11.7266 2.31728 12.2338 2.31634H17.7819H17.7817C18.2889 2.31726 18.7751 2.56864 19.1337 3.01518C19.4921 3.46193 19.6939 4.06753 19.6947 4.69907V15.152H10.3208L10.321 4.69907ZM21.0871 18.3215C21.0856 18.3881 21.0427 18.4415 20.9893 18.4434H9.03189C8.97844 18.4415 8.9355 18.3881 8.93403 18.3215V16.5903C8.9355 16.5239 8.97844 16.4704 9.03189 16.4686H20.9893C21.0427 16.4704 21.0856 16.5239 21.0871 16.5903V18.3215Z" fill="#CAB7B7"/>
</svg>
