<svg width="28" height="28" viewBox="0 0 28 28" fill="none" xmlns="http://www.w3.org/2000/svg">
<path d="M24.568 12.1906H20.4714C19.72 12.1906 19.1381 12.8453 19.1381 13.6312C19.1381 14.4168 19.7441 15.0717 20.4714 15.0717H22.0472V16.9051C22.0472 17.4813 21.6108 17.9265 21.1018 17.9265L17.1989 17.9263C16.6656 17.9263 16.2536 17.4549 16.2536 16.905V10.881H20.4959C21.2473 10.881 21.8292 10.2262 21.8292 9.44041C21.8291 8.65474 21.1988 8 20.4716 8H7.40563C6.6542 8 6.07229 8.65474 6.07229 9.44056C6.07229 10.2262 6.6783 10.8811 7.40563 10.8811H11.6479V16.9047C11.6479 17.4809 11.2116 17.9261 10.7026 17.9261H6.82404C6.29075 17.9261 5.87869 17.4547 5.87869 16.9047V15.0714H7.45442C8.20586 15.0714 8.78776 14.4166 8.78776 13.6308C8.78763 12.8451 8.18162 12.1904 7.45428 12.1904H3.33334C2.5819 12.1904 2 12.8451 2 13.6309C2.00013 14.4165 2.60614 15.0714 3.33348 15.0714H4.88483V16.9047C4.88483 18.057 5.75746 19 6.82414 19H10.7027C11.7692 19 12.642 18.0572 12.642 16.9047V16.3809H15.3085V16.9047C15.3085 18.057 16.1812 19 17.2478 19H21.1264C22.1929 19 23.0657 18.0572 23.0657 16.9047V15.0714H24.6414C25.3929 15.0714 25.9748 14.4166 25.9748 13.6308C25.9745 12.8451 25.2958 12.1904 24.5684 12.1904L24.568 12.1906ZM2.92073 13.6048C2.92073 13.3953 3.09041 13.212 3.28431 13.212H7.40526C7.59917 13.212 7.76884 13.3953 7.76884 13.6048C7.76884 13.8143 7.59916 13.9976 7.40526 13.9976H3.30866C3.09036 13.9976 2.9207 13.8405 2.9207 13.6048H2.92073ZM7.04167 9.44067C7.04167 9.23116 7.21135 9.04785 7.40526 9.04785H20.4469C20.6408 9.04785 20.8105 9.23117 20.8105 9.44067C20.8106 9.65018 20.6409 9.83349 20.447 9.83349H7.40502C7.2111 9.83349 7.04143 9.65017 7.04143 9.44067H7.04167ZM12.5929 15.3072V10.8808H15.2595V15.3332C15.2596 15.307 12.5929 15.307 12.5929 15.307V15.3072ZM24.568 13.9976H20.4714C20.2775 13.9976 20.1078 13.8143 20.1078 13.6048C20.1078 13.3953 20.2775 13.212 20.4714 13.212H24.5924C24.7863 13.212 24.9559 13.3953 24.9559 13.6048C24.9559 13.8405 24.7863 13.9976 24.568 13.9976H24.568Z" fill="#CAB7B7"/>
</svg>
