<svg width="14" height="14" viewBox="0 0 14 14" fill="none" xmlns="http://www.w3.org/2000/svg">
<path d="M3.35886 3.75854e-05C2.4721 3.75854e-05 1.72641 0.617643 1.50228 1.44586H0.50223C0.368963 1.44529 0.240945 1.49868 0.14664 1.59394C0.0524378 1.68931 -0.00024208 1.81865 0.000203658 1.95341C0.000761715 2.0876 0.0538892 2.21593 0.148091 2.31039C0.242182 2.40486 0.369643 2.45768 0.502253 2.45711H1.50042C1.72298 3.28758 2.47044 3.9079 3.35889 3.9079C4.23839 3.9079 4.97963 3.29966 5.21055 2.48185L13.501 2.45713H13.5009C13.6336 2.4569 13.7606 2.40329 13.8542 2.30837C13.9478 2.21334 14.0002 2.08456 14 1.95046C13.9997 1.81672 13.9471 1.6885 13.8536 1.59391C13.7599 1.49933 13.6332 1.44606 13.5009 1.44583L5.22415 1.47055C5.00873 0.629597 4.25467 0 3.35888 0L3.35886 3.75854e-05ZM3.35886 1.01132C3.87986 1.01132 4.29151 1.42667 4.29151 1.95341C4.29151 2.48026 3.87989 2.89653 3.35886 2.89653C2.83784 2.89653 2.42724 2.48028 2.42724 1.95341C2.42724 1.42653 2.83786 1.01132 3.35886 1.01132ZM8.70085 4.88656C7.79935 4.88656 7.04071 5.51512 6.81693 6.35801H0.50203C0.369211 6.35756 0.241636 6.41049 0.147554 6.50508C0.0533521 6.59977 0.000337865 6.72844 7.05137e-07 6.86275C-0.000222535 6.99729 0.0525692 7.12652 0.146883 7.22156C0.241085 7.3167 0.36888 7.36986 0.502044 7.3693H6.8178C7.04225 8.21196 7.79999 8.84176 8.7007 8.84176C9.6014 8.84176 10.3592 8.21196 10.5836 7.3693H13.5006C13.6333 7.36907 13.7603 7.31557 13.854 7.22054C13.9475 7.12551 14 6.99684 13.9997 6.86275C13.9994 6.729 13.9468 6.60079 13.8533 6.5062C13.7597 6.41162 13.633 6.35834 13.5006 6.35801H10.5844C10.3607 5.51511 9.60202 4.88656 8.70051 4.88656L8.70085 4.88656ZM8.70085 5.89785C9.23525 5.89785 9.65793 6.32233 9.65793 6.86276C9.65793 7.40319 9.23525 7.83059 8.70085 7.83059C8.16646 7.83059 7.74378 7.40316 7.74378 6.86276C7.74378 6.32236 8.16646 5.89785 8.70085 5.89785ZM4.81494 10.0418C3.91455 10.0418 3.15582 10.671 2.93101 11.5133H0.502087C0.36882 11.5128 0.240802 11.5661 0.146497 11.6614C0.052295 11.7567 -0.000384866 11.8862 6.08715e-05 12.0209C0.000618929 12.155 0.0537464 12.2834 0.147948 12.3779C0.242039 12.4724 0.3695 12.5251 0.50211 12.5245H2.93004C3.15337 13.3689 3.913 14 4.81485 14C5.71678 14 6.47542 13.3688 6.69877 12.5245H13.5008C13.633 12.5243 13.7597 12.4712 13.8531 12.3768C13.9466 12.2824 13.9994 12.1545 14 12.0209C14.0004 11.8866 13.9482 11.7577 13.8545 11.6625C13.7609 11.5672 13.6337 11.5136 13.5008 11.5132H6.69791C6.47312 10.6711 5.71537 10.0418 4.81501 10.0418L4.81494 10.0418ZM4.81494 11.0531C5.34934 11.0531 5.77202 11.4805 5.77202 12.0209C5.77202 12.5613 5.34934 12.9887 4.81494 12.9887C4.28054 12.9887 3.85786 12.5613 3.85786 12.0209C3.85786 11.4805 4.28054 11.0531 4.81494 11.0531Z" fill="black"/>
</svg>
