<svg width="24" height="25" viewBox="0 0 24 25" fill="none" xmlns="http://www.w3.org/2000/svg">
<path d="M12 2.2523C15.2041 2.2523 15.5836 2.265 16.849 2.32514C18.019 2.38076 18.6544 2.5844 19.0773 2.75553C19.6373 2.98229 20.0371 3.25321 20.457 3.6906C20.8769 4.12799 21.137 4.54444 21.3546 5.12786C21.519 5.56837 21.7145 6.23024 21.7679 7.44893C21.8256 8.76705 21.8378 9.16236 21.8378 12.5C21.8378 15.8377 21.8256 16.233 21.7679 17.5511C21.7145 18.7698 21.519 19.4317 21.3546 19.8722C21.137 20.4556 20.8769 20.8721 20.457 21.3095C20.0371 21.7468 19.6373 22.0178 19.0773 22.2445C18.6544 22.4157 18.019 22.6193 16.849 22.6749C15.5838 22.735 15.2043 22.7478 12 22.7478C8.79563 22.7478 8.41613 22.735 7.15097 22.6749C5.98098 22.6193 5.34559 22.4157 4.92274 22.2445C4.36261 22.0178 3.96282 21.7468 3.54293 21.3095C3.12303 20.8721 2.86295 20.4556 2.64531 19.8722C2.48097 19.4317 2.28548 18.7698 2.23209 17.5511C2.17435 16.233 2.16216 15.8377 2.16216 12.5C2.16216 9.16236 2.17435 8.76705 2.23209 7.44898C2.28548 6.23024 2.48097 5.56837 2.64531 5.12786C2.86295 4.54444 3.12303 4.12799 3.54293 3.6906C3.96282 3.25321 4.36261 2.98229 4.92274 2.75553C5.34559 2.5844 5.98098 2.38076 7.15092 2.32514C8.41632 2.265 8.79582 2.2523 12 2.2523ZM12 0C8.74095 0 8.33234 0.0143895 7.05241 0.0752221C5.77511 0.135956 4.90283 0.347233 4.1395 0.656259C3.35039 0.975705 2.68118 1.40312 2.01406 2.09803C1.34695 2.79294 0.936629 3.49004 0.629961 4.31203C0.333296 5.10717 0.13047 6.01579 0.0721656 7.34632C0.0137662 8.67952 0 9.1052 0 12.5C0 15.8948 0.0137662 16.3205 0.0721656 17.6537C0.13047 18.9843 0.333296 19.8929 0.629961 20.688C0.936629 21.51 1.34695 22.2071 2.01406 22.902C2.68118 23.5969 3.35039 24.0243 4.1395 24.3438C4.90283 24.6528 5.77511 24.8641 7.05241 24.9248C8.33234 24.9857 8.74095 25 12 25C15.259 25 15.6677 24.9857 16.9475 24.9248C18.2248 24.8641 19.0971 24.6528 19.8605 24.3438C20.6496 24.0243 21.3188 23.5969 21.9859 22.902C22.653 22.2071 23.0633 21.51 23.37 20.688C23.6667 19.8929 23.8695 18.9843 23.9278 17.6537C23.9862 16.3205 24 15.8948 24 12.5C24 9.1052 23.9862 8.67952 23.9278 7.34632C23.8695 6.01579 23.6667 5.10717 23.37 4.31203C23.0633 3.49004 22.653 2.79294 21.9859 2.09803C21.3188 1.40312 20.6496 0.975705 19.8605 0.656259C19.0971 0.347233 18.2248 0.135956 16.9475 0.0752221C15.6677 0.0143895 15.259 0 12 0ZM12 6.08109C8.59671 6.08109 5.83779 8.95496 5.83779 12.5C5.83779 16.0451 8.59671 18.919 12 18.919C15.4032 18.919 18.1622 16.0451 18.1622 12.5C18.1622 8.95496 15.4032 6.08109 12 6.08109ZM12 16.6667C9.79085 16.6667 7.99995 14.8012 7.99995 12.5C7.99995 10.1989 9.79085 8.33333 12 8.33333C14.2091 8.33333 16 10.1989 16 12.5C16 14.8012 14.2091 16.6667 12 16.6667ZM19.8456 5.82748C19.8456 6.65592 19.2009 7.32751 18.4056 7.32751C17.6103 7.32751 16.9656 6.65592 16.9656 5.82748C16.9656 4.99905 17.6103 4.32751 18.4056 4.32751C19.2009 4.32751 19.8456 4.99905 19.8456 5.82748Z" fill="#1D1D1D"/>
</svg>
