<svg width="39" height="39" viewBox="0 0 39 39" fill="none" xmlns="http://www.w3.org/2000/svg">
<rect x="0.5" y="0.5" width="38" height="38" rx="4.5" stroke="#55934B"/>
<path d="M13.1277 26.5508C13.1277 27.2004 13.3908 27.8232 13.8587 28.2827C14.3265 28.7419 14.9612 28.9999 15.6229 28.9999C16.2847 28.9999 16.9194 28.7419 17.3872 28.2827C17.8551 27.8232 18.118 27.2004 18.118 26.5508C18.118 25.9013 17.8551 25.2783 17.3872 24.8191C16.9194 24.3597 16.2847 24.1017 15.6229 24.1017C14.9614 24.1025 14.3273 24.3607 13.8594 24.8199C13.3918 25.2789 13.1285 25.9015 13.1277 26.5508ZM16.9735 26.5508C16.9735 26.9025 16.8312 27.2396 16.5779 27.4882C16.3246 27.7368 15.9811 27.8765 15.6229 27.8765C15.2648 27.8765 14.9213 27.7368 14.668 27.4882C14.4147 27.2396 14.2724 26.9024 14.2724 26.5508C14.2724 26.1993 14.4147 25.862 14.668 25.6134C14.9213 25.3648 15.2648 25.2253 15.6229 25.2253C15.9802 25.2266 16.3223 25.3669 16.5743 25.6155C16.8262 25.8639 16.9677 26.2003 16.9677 26.5508L16.9735 26.5508Z" fill="#55934B"/>
<path d="M24.5931 24.1018C23.9313 24.1018 23.2968 24.3598 22.8288 24.8192C22.3609 25.2784 22.098 25.9014 22.098 26.5509C22.098 27.2005 22.3609 27.8233 22.8288 28.2827C23.2968 28.742 23.9313 29 24.5931 29C25.2548 29 25.8895 28.742 26.3573 28.2827C26.8254 27.8233 27.0883 27.2005 27.0883 26.5509C27.0875 25.9016 26.8244 25.279 26.3566 24.82C25.8889 24.3608 25.2546 24.1025 24.5931 24.1018ZM24.5931 27.8767C24.2349 27.8767 23.8914 27.737 23.6381 27.4884C23.3848 27.2397 23.2425 26.9026 23.2425 26.5509C23.2425 26.1995 23.3848 25.8621 23.6381 25.6135C23.8914 25.3649 24.2349 25.2254 24.5931 25.2254C24.9512 25.2254 25.2949 25.3649 25.5482 25.6135C25.8015 25.8621 25.9436 26.1995 25.9436 26.5509C25.943 26.902 25.8003 27.2386 25.547 27.4866C25.2939 27.7344 24.9508 27.8737 24.5931 27.8737L24.5931 27.8767Z" fill="#55934B"/>
<path d="M8.57252 10.1289H11.9488L14.421 22.2566C14.4751 22.5237 14.7162 22.7139 14.9934 22.7088H26.516C26.7825 22.7088 27.014 22.5284 27.0739 22.2733L28.9854 14.0947C29.0245 13.9278 28.9842 13.7524 28.8754 13.6184C28.7668 13.4844 28.6018 13.4065 28.4273 13.4067H19.9776C19.8399 13.4067 19.7068 13.4556 19.6028 13.5442L16.6498 16.0718C16.439 16.2813 16.4291 16.6153 16.6269 16.8369C16.8247 17.0583 17.1632 17.0922 17.4023 16.9145L20.195 14.5243H27.7204L26.0608 21.5855H15.4482L12.9788 9.45227C12.9247 9.18525 12.6836 8.99482 12.4066 9.00011H8.57243C8.25627 9.00011 8 9.25146 8 9.56178C8 9.87191 8.25628 10.1235 8.57243 10.1235L8.57252 10.1289Z" fill="#55934B"/>
</svg>
