<svg width="21" height="20" viewBox="0 0 21 20" fill="none" xmlns="http://www.w3.org/2000/svg">
<path d="M5.12774 17.5508C5.12774 18.2004 5.3908 18.8232 5.85867 19.2827C6.32651 19.7419 6.96121 19.9999 7.62285 19.9999C8.28469 19.9999 8.91941 19.7419 9.38724 19.2827C9.85508 18.8232 10.118 18.2004 10.118 17.5508C10.118 16.9013 9.8551 16.2783 9.38724 15.8191C8.9194 15.3597 8.28469 15.1017 7.62285 15.1017C6.96142 15.1025 6.32732 15.3607 5.85943 15.8199C5.39179 16.2789 5.12851 16.9015 5.12774 17.5508ZM8.97351 17.5508C8.97351 17.9025 8.8312 18.2396 8.57792 18.4882C8.32464 18.7368 7.98112 18.8765 7.62289 18.8765C7.26482 18.8765 6.92135 18.7368 6.66801 18.4882C6.41468 18.2396 6.27242 17.9024 6.27242 17.5508C6.27242 17.1993 6.41473 16.862 6.66801 16.6134C6.9213 16.3648 7.26481 16.2253 7.62289 16.2253C7.98016 16.2266 8.32229 16.3669 8.57435 16.6155C8.82623 16.8639 8.96774 17.2003 8.96774 17.5508L8.97351 17.5508Z" fill="#FFFFFF"/>
<path d="M16.5931 15.1018C15.9313 15.1018 15.2968 15.3598 14.8288 15.8192C14.3609 16.2784 14.098 16.9014 14.098 17.5509C14.098 18.2005 14.3609 18.8233 14.8288 19.2827C15.2968 19.742 15.9313 20 16.5931 20C17.2548 20 17.8895 19.742 18.3573 19.2827C18.8254 18.8233 19.0883 18.2005 19.0883 17.5509C19.0875 16.9016 18.8244 16.279 18.3566 15.82C17.8889 15.3608 17.2546 15.1025 16.5931 15.1018ZM16.5931 18.8767C16.2349 18.8767 15.8914 18.737 15.6381 18.4884C15.3848 18.2397 15.2425 17.9026 15.2425 17.5509C15.2425 17.1995 15.3848 16.8621 15.6381 16.6135C15.8914 16.3649 16.2349 16.2254 16.5931 16.2254C16.9512 16.2254 17.2949 16.3649 17.5482 16.6135C17.8015 16.8621 17.9436 17.1995 17.9436 17.5509C17.943 17.902 17.8003 18.2386 17.547 18.4866C17.2939 18.7344 16.9508 18.8737 16.5931 18.8737L16.5931 18.8767Z" fill="#FFFFFF"/>
<path d="M0.572524 1.12894H3.94883L6.421 13.2566C6.47509 13.5237 6.71619 13.7139 6.99342 13.7088H18.516C18.7825 13.7088 19.014 13.5284 19.0739 13.2733L20.9854 5.0947C21.0245 4.92779 20.9842 4.75244 20.8754 4.61844C20.7668 4.48443 20.6018 4.40646 20.4273 4.40665H11.9776C11.8399 4.40665 11.7068 4.45563 11.6028 4.54419L8.64981 7.07184C8.43904 7.28127 8.42906 7.6153 8.62686 7.83688C8.82465 8.05827 9.16316 8.09215 9.40228 7.91446L12.195 5.52433H19.7204L18.0608 12.5855H7.44818L4.97882 0.452275C4.92473 0.185246 4.68363 -0.00518365 4.4066 0.000107581H0.572426C0.256271 0.000107581 0 0.251464 0 0.561781C0 0.871912 0.256276 1.12345 0.572426 1.12345L0.572524 1.12894Z" fill="#FFFFFF"/>
</svg>
