<svg width="72" height="71" viewBox="0 0 72 71" fill="none" xmlns="http://www.w3.org/2000/svg">
<path d="M29.1402 57.4577C36.2758 57.456 43.1602 54.855 48.4743 50.1526L48.4984 50.1934L69.0698 70.5036C69.7402 71.1655 70.8267 71.1655 71.4972 70.5036C72.1676 69.8417 72.1676 68.7689 71.4972 68.107L50.9259 47.7968L50.8845 47.773C55.2984 42.8512 57.8686 36.5842 58.1671 30.0175C58.4661 23.4506 56.4743 16.9814 52.5254 11.689C48.5764 6.39675 42.9085 2.60092 36.4665 0.936645C30.0254 -0.728355 23.2014 -0.161599 17.1325 2.54144C11.0632 5.24458 6.11666 9.92086 3.11824 15.7895C0.119829 21.6587 -0.74975 28.3656 0.65527 34.7911C2.05979 41.2163 5.65454 46.9722 10.8382 51.0973C16.0223 55.2223 22.4825 57.4675 29.1393 57.4579L29.1402 57.4577ZM29.1402 3.29768V3.29711C35.9602 3.29711 42.5007 5.97196 47.3238 10.7333C52.1457 15.4945 54.855 21.952 54.855 28.6846C54.855 35.418 52.1457 41.8755 47.3238 46.6373C42.5013 51.398 35.9608 54.0729 29.1402 54.0729C22.3209 54.0729 15.7804 51.398 10.9581 46.6373C6.13564 41.876 3.4264 35.4186 3.4264 28.6846C3.43386 21.9539 6.14534 15.5005 10.9661 10.7405C15.787 5.98081 22.3234 3.30378 29.1408 3.29653L29.1402 3.29768ZM13.7118 28.6854C13.7118 27.751 14.4797 26.9933 15.4262 26.9933H27.4264V15.1455C27.4264 14.211 28.1938 13.4528 29.1402 13.4528C30.0873 13.4528 30.8547 14.211 30.8547 15.1455V26.9933H42.8548C43.8013 26.9933 44.5687 27.751 44.5687 28.6854C44.5687 29.6205 43.8013 30.3781 42.8548 30.3781H30.8547V42.2259C30.8547 43.1604 30.0873 43.9181 29.1402 43.9181C28.1938 43.9181 27.4264 43.1604 27.4264 42.2259V30.3781H15.4262C14.4797 30.3781 13.7118 29.6205 13.7118 28.6854Z" fill="white" fill-opacity="0.8"/>
</svg>
