<svg width="17" height="16" viewBox="0 0 17 16" fill="none" xmlns="http://www.w3.org/2000/svg">
<path d="M6.05336 0C2.76281 0 0.0845947 2.67342 0.0845947 5.95978C0.0845947 9.24622 2.76289 11.9196 6.05336 11.9196C9.34384 11.9196 12.0221 9.24614 12.0221 5.95978C12.0221 2.67349 9.34384 0 6.05336 0ZM6.05336 10.217C3.70255 10.217 1.78975 8.30728 1.78975 5.95978C1.78975 3.6125 3.70233 1.70259 6.05336 1.70259C8.40418 1.70259 10.317 3.61228 10.317 5.95978C10.317 8.3072 8.40425 10.217 6.05336 10.217Z" fill="#E10000"/>
<path d="M11.7726 10.0406L10.5669 11.2445L15.0801 15.7509C15.4136 16.083 15.9533 16.083 16.2858 15.7509C16.6192 15.418 16.6192 14.879 16.2858 14.5471L11.7726 10.0406Z" fill="#E10000"/>
</svg>
