<svg width="26" height="25" viewBox="0 0 26 25" fill="none" xmlns="http://www.w3.org/2000/svg">
<path d="M19.4548 24.9977C19.0475 24.9972 18.6462 24.8991 18.2844 24.712L12.9972 21.9829L7.71004 24.712C7.14734 25.0022 6.49714 25.0726 5.88559 24.9097C5.27384 24.7468 4.74463 24.3621 4.40049 23.8303C4.05634 23.2987 3.92207 22.6578 4.02345 22.0323L4.98145 16.1559L0.755459 11.9661C0.305696 11.5198 0.0377328 10.922 0.00365388 10.2889C-0.0302035 9.65567 0.172172 9.03274 0.571719 8.54069C0.971275 8.04867 1.53918 7.72303 2.16511 7.62694L8.04324 6.72321L10.7199 1.40539C11.0052 0.839244 11.4905 0.399206 12.0815 0.171004C12.6727 -0.0570013 13.3275 -0.0570013 13.9185 0.171004C14.5096 0.399201 14.995 0.839244 15.28 1.40539L17.9567 6.72321L23.8348 7.62694C24.461 7.72304 25.0289 8.04868 25.4284 8.54069C25.8278 9.03271 26.0304 9.65567 25.9963 10.2889C25.9624 10.922 25.6945 11.5198 25.2447 11.9661L21.0187 16.1559L21.9767 22.0313C22.0971 22.7706 21.8878 23.5255 21.4038 24.0967C20.92 24.6678 20.2104 24.9981 19.462 25L19.4548 24.9977ZM12.9975 20.2574C13.1268 20.2574 13.2541 20.2884 13.369 20.3475L19.0275 23.2706C19.2323 23.3759 19.4688 23.4013 19.6912 23.342C19.9136 23.2827 20.1061 23.1431 20.2314 22.9498C20.3568 22.7566 20.4062 22.5238 20.3701 22.2964L19.3439 16.0019C19.3018 15.7427 19.3872 15.4793 19.5734 15.2946L24.097 10.81C24.2605 10.6474 24.3581 10.4298 24.3704 10.1993C24.3827 9.96879 24.3092 9.74195 24.164 9.56287C24.0187 9.38358 23.8121 9.26457 23.5843 9.22914L17.2965 8.2628C17.037 8.22313 16.8127 8.06002 16.6947 7.82527L13.8314 2.13328V2.13309C13.7189 1.93743 13.5414 1.7878 13.3296 1.71058C13.1178 1.63317 12.8854 1.63317 12.6736 1.71058C12.462 1.7878 12.2842 1.93743 12.1719 2.13309L9.3086 7.82508L9.30841 7.82527C9.19049 8.06002 8.96618 8.22312 8.70666 8.2628L2.41485 9.22914C2.18709 9.26458 1.98048 9.38358 1.83522 9.56287C1.68998 9.74196 1.61649 9.96881 1.6288 10.1993C1.64131 10.4298 1.73865 10.6474 1.90216 10.81L6.42575 15.2946C6.61196 15.4793 6.69757 15.7427 6.65525 16.0019L5.6251 22.2914C5.58894 22.519 5.63838 22.7519 5.7638 22.945C5.88904 23.1382 6.0816 23.278 6.30399 23.3373C6.52637 23.3964 6.7628 23.371 6.9677 23.2658L12.6262 20.3428C12.7414 20.2852 12.8688 20.2559 12.9977 20.2575L12.9975 20.2574Z" fill="white"/>
</svg>
