<svg width="12" height="7" viewBox="0 0 12 7" fill="none" xmlns="http://www.w3.org/2000/svg">
<path d="M12 3.5001C12 3.41491 11.9441 3.3017 11.8873 3.2467L8.6873 0.114962C8.53788 -0.0272842 8.29583 -0.0437319 8.12172 0.10057C7.96602 0.229711 7.96211 0.481433 8.10609 0.621633L10.6748 3.13159H0.399971C0.178985 3.13159 0 3.29658 0 3.49998C0 3.70352 0.179132 3.86838 0.399971 3.86838H10.6748L8.10609 6.37833C7.96212 6.51852 7.9723 6.76409 8.12172 6.89926C8.27937 7.04202 8.54026 7.0293 8.6873 6.88487L11.8873 3.75326C11.9813 3.66832 11.9985 3.58647 12 3.49999V3.5001Z" fill="#202020"/>
</svg>
