<svg width="19" height="19" viewBox="0 0 19 19" fill="none" xmlns="http://www.w3.org/2000/svg">
<circle cx="9.5" cy="9.5" r="9.5" fill="#787878"/>
<path d="M12.1387 7.25674C12.1387 7.63044 12.0885 7.94262 11.9883 8.19327C11.8926 8.43936 11.7673 8.65583 11.6123 8.84268C11.4574 9.02953 11.2933 9.20043 11.1201 9.35538C10.9515 9.50577 10.7897 9.67439 10.6348 9.86124C10.4798 10.0481 10.3522 10.2668 10.252 10.5175C10.1562 10.7636 10.1084 11.0735 10.1084 11.4472V11.5155H8.9873V11.4472C8.9873 11.0097 9.03516 10.6428 9.13086 10.3466C9.23112 10.0458 9.35872 9.7906 9.51367 9.58096C9.66862 9.36677 9.83268 9.18448 10.0059 9.03409C10.179 8.87914 10.3408 8.71964 10.4912 8.55557C10.6462 8.39151 10.7715 8.20922 10.8672 8.0087C10.9674 7.80818 11.0176 7.55753 11.0176 7.25674C11.0176 6.86482 10.8945 6.54353 10.6484 6.29288C10.4023 6.04223 10.0833 5.9169 9.69141 5.9169C9.23568 5.9169 8.87565 6.06046 8.61133 6.34756C8.35156 6.63012 8.22168 7.0699 8.22168 7.6669V7.80362H7.10059V7.6669C7.10059 6.78734 7.33757 6.11286 7.81152 5.64346C8.29004 5.17406 8.91667 4.93936 9.69141 4.93936C10.0378 4.93936 10.3613 4.99861 10.6621 5.1171C10.9629 5.23103 11.2204 5.39053 11.4346 5.59561C11.6533 5.80069 11.8242 6.0445 11.9473 6.32706C12.0749 6.60961 12.1387 6.9195 12.1387 7.25674ZM8.85059 13.1972C8.85059 12.983 8.91211 12.8121 9.03516 12.6845C9.16276 12.5569 9.33366 12.4931 9.54785 12.4931C9.76204 12.4931 9.93066 12.5569 10.0537 12.6845C10.1813 12.8121 10.2451 12.983 10.2451 13.1972C10.2451 13.4114 10.1813 13.5823 10.0537 13.7099C9.93066 13.8329 9.76204 13.8944 9.54785 13.8944C9.33366 13.8944 9.16276 13.8329 9.03516 13.7099C8.91211 13.5823 8.85059 13.4114 8.85059 13.1972Z" fill="white"/>
</svg>
