<svg width="21" height="16" viewBox="0 0 21 16" fill="none" xmlns="http://www.w3.org/2000/svg">
<path d="M16.4 15.7C15.2 15.7 14.14 15.24 13.22 14.32C12.34 13.4 11.9 12.26 11.9 10.9C11.9 9.02 12.2 7.42 12.8 6.1C13.44 4.78 14.14 3.7 14.9 2.86C15.78 1.86 16.78 1.04 17.9 0.399998L19.4 2.5C18.96 2.78 18.54 3.14 18.14 3.58C17.82 3.94 17.48 4.38 17.12 4.9C16.8 5.42 16.56 6.02 16.4 6.7C17.6 6.7 18.64 7.16 19.52 8.08C20.44 8.96 20.9 10 20.9 11.2C20.9 12.4 20.44 13.46 19.52 14.38C18.64 15.26 17.6 15.7 16.4 15.7ZM5.3 15.7C4.1 15.7 3.04 15.24 2.12 14.32C1.24 13.4 0.8 12.26 0.8 10.9C0.8 9.02 1.1 7.42 1.7 6.1C2.34 4.78 3.04 3.7 3.8 2.86C4.68 1.86 5.68 1.04 6.8 0.399998L8.3 2.5C7.86 2.78 7.44 3.14 7.04 3.58C6.72 3.94 6.38 4.38 6.02 4.9C5.7 5.42 5.46 6.02 5.3 6.7C6.5 6.7 7.54 7.16 8.42 8.08C9.34 8.96 9.8 10 9.8 11.2C9.8 12.4 9.34 13.46 8.42 14.38C7.54 15.26 6.5 15.7 5.3 15.7Z" fill="#E10000"/>
</svg>
